<?xml version="1.0" standalone="no"?>
<!DOCTYPE svg PUBLIC "-//W3C//DTD SVG 20010904//EN"
 "http://www.w3.org/TR/2001/REC-SVG-20010904/DTD/svg10.dtd">
<svg version="1.0" xmlns="http://www.w3.org/2000/svg"
 width="1016.000000pt" height="1016.000000pt" viewBox="0 0 1016.000000 1016.000000"
 preserveAspectRatio="xMidYMid meet">
<metadata>
Created by potrace 1.11, written by Peter Selinger 2001-2013
</metadata>
<g transform="translate(0.000000,1016.000000) scale(0.100000,-0.100000)"
fill="#000000" stroke="none">
<path d="M615 10139 c-44 -11 -84 -24 -89 -29 -6 -6 -17 -10 -26 -10 -31 0
-169 -100 -233 -170 -132 -142 -189 -302 -182 -505 2 -60 6 -121 9 -134 3 -14
10 -59 16 -100 6 -42 12 -87 14 -101 2 -14 7 -47 11 -73 4 -27 8 -56 9 -65 2
-10 7 -44 11 -77 4 -32 8 -66 10 -75 3 -17 14 -98 20 -145 2 -16 9 -66 15
-110 15 -108 17 -123 25 -175 4 -25 8 -56 10 -70 2 -14 6 -45 10 -70 12 -79
14 -94 19 -135 3 -22 12 -87 20 -145 9 -58 18 -123 21 -145 3 -22 7 -56 10
-75 3 -19 7 -48 9 -65 17 -128 42 -307 51 -365 2 -14 9 -61 15 -105 6 -44 12
-91 14 -105 3 -14 7 -47 11 -75 3 -27 15 -108 25 -180 11 -71 22 -152 25 -180
3 -27 10 -75 15 -105 5 -30 12 -77 15 -105 2 -27 7 -61 9 -75 3 -14 8 -43 10
-65 5 -37 30 -215 42 -295 14 -96 24 -169 29 -210 3 -25 7 -56 10 -70 4 -23 8
-54 21 -155 2 -22 7 -51 9 -65 3 -14 7 -45 10 -70 3 -25 7 -52 10 -60 2 -8 7
-42 10 -75 3 -33 8 -67 10 -75 2 -8 6 -35 9 -60 5 -46 13 -102 21 -155 3 -16
7 -46 9 -65 6 -45 19 -132 21 -145 1 -5 6 -37 10 -70 4 -33 9 -71 12 -85 2
-14 5 -41 7 -61 2 -20 6 -50 9 -65 4 -16 9 -51 12 -79 3 -27 8 -61 10 -75 3
-14 7 -41 9 -60 3 -19 7 -51 10 -70 3 -19 17 -120 31 -225 15 -104 28 -202 31
-216 2 -15 6 -47 9 -70 3 -24 8 -55 10 -69 2 -14 9 -63 15 -110 10 -80 13 -98
25 -167 2 -16 7 -50 10 -78 3 -27 7 -61 10 -75 5 -29 11 -73 20 -145 4 -27 8
-61 10 -75 12 -71 44 -301 50 -355 3 -27 8 -59 10 -71 3 -11 7 -43 10 -70 3
-27 8 -60 10 -74 4 -21 29 -198 40 -280 7 -56 26 -187 29 -210 2 -14 7 -47 11
-75 13 -102 17 -121 32 -180 42 -166 173 -338 320 -421 51 -29 351 -145 543
-211 25 -8 104 -37 175 -63 131 -49 850 -310 1045 -380 58 -21 143 -52 190
-70 47 -17 128 -47 180 -65 52 -19 114 -41 137 -49 23 -8 167 -61 320 -116
153 -56 343 -125 423 -155 80 -29 174 -63 210 -75 36 -12 70 -26 75 -30 9 -6
86 -29 165 -48 55 -14 213 -12 277 3 32 8 103 30 158 50 55 20 147 54 205 75
58 21 164 59 235 85 72 26 177 64 235 86 312 114 1456 529 1650 599 381 136
891 325 925 343 96 48 196 134 252 217 50 73 109 203 102 222 0 2 4 14 9 28 5
14 13 48 16 75 4 28 11 77 16 110 5 33 12 87 16 120 3 33 8 62 9 65 2 3 6 30
10 60 3 30 8 70 11 87 2 18 6 50 9 70 3 21 9 67 15 103 6 36 12 79 14 95 4 35
25 188 31 225 2 14 7 45 10 70 3 25 8 56 10 70 2 14 7 45 10 70 4 39 17 130
30 220 2 14 7 48 11 75 3 28 8 59 10 70 2 11 6 44 10 73 3 29 7 63 9 74 3 12
9 58 15 102 6 45 13 92 16 106 2 14 7 49 10 79 3 30 7 63 9 73 2 10 11 71 20
136 9 64 18 128 20 142 2 14 7 44 10 68 3 24 7 53 10 65 2 12 7 45 10 72 5 43
20 147 39 285 3 19 13 87 22 150 9 63 18 129 20 145 11 95 16 125 24 175 5 30
12 80 15 110 3 30 8 62 10 70 2 8 7 38 10 65 3 28 7 64 10 80 3 17 7 48 10 70
3 22 10 67 15 100 5 33 12 85 15 115 3 30 8 62 10 70 3 8 7 40 10 70 3 30 7
62 10 70 2 8 7 40 10 70 3 30 10 82 15 115 5 33 12 80 15 105 3 25 8 56 10 70
2 14 6 45 10 70 6 53 16 117 21 144 2 10 6 44 10 75 3 31 8 65 10 75 2 11 8
56 14 100 6 45 18 128 26 186 9 58 17 116 19 130 2 14 9 63 15 110 6 47 13 97
15 111 3 14 7 43 10 64 6 53 13 98 40 285 13 91 26 188 30 215 3 28 12 93 20
145 7 52 16 118 20 145 3 28 10 77 15 110 5 33 12 83 15 110 4 28 8 57 10 65
3 8 7 40 10 70 3 30 8 66 10 80 9 48 37 251 51 360 3 30 8 62 9 70 1 8 6 40
10 70 4 30 9 64 11 75 1 11 6 40 9 65 4 25 13 86 20 135 16 105 13 258 -5 330
-55 216 -228 413 -430 488 -135 50 156 47 -4555 46 -4314 0 -4381 -1 -4460
-20z m3622 -1529 c840 -361 1571 -1016 2074 -1860 41 -69 92 -159 113 -200 22
-41 42 -79 46 -85 4 -5 35 -69 68 -142 132 -283 233 -565 307 -858 39 -154 47
-192 61 -275 3 -14 9 -47 14 -75 10 -50 12 -65 25 -180 4 -33 9 -71 11 -85 22
-135 22 -630 0 -760 -3 -14 -12 -74 -21 -133 -107 -705 -483 -1263 -1021
-1517 -180 -86 -335 -134 -529 -165 -159 -25 -197 -28 -375 -29 -180 -2 -361
15 -505 48 -84 20 -258 72 -300 90 -16 8 -61 28 -100 44 -277 121 -547 332
-756 592 -65 81 -171 250 -226 361 -119 240 -192 491 -219 755 -13 126 -6 428
11 494 2 8 7 35 10 60 10 75 51 229 90 334 103 287 266 539 489 759 82 80 245
217 260 217 6 0 22 -57 30 -110 9 -57 17 -93 21 -100 2 -4 7 -22 10 -40 31
-176 119 -402 208 -535 68 -102 64 -100 106 -52 114 132 237 332 311 505 23
53 45 106 50 117 54 125 136 464 155 635 4 36 9 74 12 85 9 37 11 520 3 600
-17 156 -21 191 -41 305 -51 289 -140 567 -264 825 -58 119 -162 298 -215 365
-32 42 -43 60 -36 60 3 0 58 -23 123 -50z"/>
<path d="M5126 4753 c-2 -3 3 -21 11 -41 44 -102 51 -244 18 -367 -39 -148
-152 -325 -288 -452 -174 -162 -346 -245 -509 -245 -45 0 -78 -4 -78 -10 0 -5
11 -42 24 -82 78 -232 271 -405 511 -460 96 -22 257 -15 349 14 269 85 462
323 493 608 10 96 4 285 -13 377 -32 175 -52 241 -112 365 -80 163 -202 266
-344 288 -32 5 -60 7 -62 5z"/>
</g>
</svg>
